<svg xmlns="http://www.w3.org/2000/svg" viewBox="0 0 3456 1764">
  <title>all flags-04</title>
  <rect x="579.91" width="2296.33" height="1764" style="fill: #0a203f"/>
  <g>
    <path d="M1761.45,778.25l1.31-1.12c2.54,3.75,5.45,7.3,7.55,11.29,5.69,10.82,7.92,22.62,7.78,34.71-.44,35.7-7.36,70-23.62,102.06-2.13,4.2-4.12,8.47-7,14.42,6.74-1.83,11.11-3.45,15.61-4.13s7-2.88,9.18-6.64c19.35-34.09,34.67-69.59,39.27-109,6-51.39-12.19-92.74-52.44-124.33-14.45-11.34-28.53-22.84-40.82-36.51a167.76,167.76,0,0,0-13.55-13.25c-18.5-16.36-29.8-16.8-49.55-2.17a31.11,31.11,0,0,0-3.9,3.11c-10,10.21-20.62,19.9-29.72,30.86-17.47,21-33.46,43.18-42.1,69.59q-6.36,19.43-11.73,39.15c-4.75,17.47-7.43,35.33-4.42,53.33,4.9,29.34,21.73,51.66,43.64,70.68a11.53,11.53,0,0,0,3.36,2.13c21.08,8.28,38.45,22.81,57.81,33.93,7.47,4.3,16.39,8.79,26.28,6,5.68-1.62,11.45-3,17.25-4.12,6.05-1.17,12.2-1.82,18.27-2.88a5.17,5.17,0,0,0,3.24-2c4-6.38,7.94-12.78,11.53-19.38a189.43,189.43,0,0,0,19.6-56.27c3.77-20.31,6.62-40.77,2.91-61.45C1765.48,796.88,1763.37,787.58,1761.45,778.25Z" style="fill: #0a203f"/>
    <path d="M1446.2,870.56c.39-.62.78-1.23,1.18-1.84,4.71,2.15,9.5,4.16,14.13,6.49,34.44,17.31,68,36.49,105,48.39a12.42,12.42,0,0,1,6.09,4.61c10.77,16.4,21.05,33.13,32,49.43,8.5,12.7,16.87,25.65,26.75,37.26,26.45,31.07,60.55,40.36,100,32.67,21.75-4.24,40.44-14.82,57.81-28.09,21.59-16.5,39.34-36.81,56.92-57.29,1.46-1.69,2.29-3.91,3.58-6.19-1.71-1.15-2.93-2.37-4.39-2.91-19.33-7.13-39.22-10.86-59.75-7.62a202.54,202.54,0,0,0-33.93,8c-17.74,6-35.9,9.71-54.29,12.73-10.49,1.72-20.74.93-30.18-3.94-8.25-4.25-16.15-9.24-24-14.23-8.42-5.35-16.41-11.39-24.93-16.58a54.87,54.87,0,0,0-28.39-8.27c-10-.09-12-4.06-6.88-13a13.73,13.73,0,0,0,.7-2.55c-31.45-33.86-43.48-73.44-30.27-120.06-11.2-4-21.35-8.07-31.72-11.39-21.37-6.86-43.2-10.81-65.81-9.4-25.65,1.59-39,13.3-43.58,38.32-2.75,14.95-.39,29.38,5.7,42.9,14.61,32.39,39.08,56.12,69.31,73.67,24.43,14.18,51.68,20.87,79.44,25.23,1.8.28,3.72-.21,5.46-.33.11-9.78-5.24-13.57-13.51-16.15a283.55,283.55,0,0,1-32.46-12.78c-25.15-11.4-50.42-22.66-72.11-40.29C1451.32,875.15,1448.79,872.82,1446.2,870.56Z" style="fill: #0a203f"/>
    <path d="M1864.78,958.63c45.24-12.4,87.1-47.51,106-88.5a90.19,90.19,0,0,0,5.9-19c3-14,5.22-28.09,8.11-42.08.83-4,2.82-7.72,4.28-11.58l2.85.59c-.7,25.49,3.8,51.42-7.44,76-11,24-27.92,43.71-46.83,62.07a63.27,63.27,0,0,0,10-1.93c14.58-3.23,29.06-7.22,43.81-9.26,9-1.24,14-4.57,17.41-13,12.33-30.57,15.64-62.43,14.66-94.94a133.08,133.08,0,0,0-3.32-26.63c-2.16-9.14-6.84-17.2-16.34-21.25l-6.89,8.68c-.21-5.7,1.1-10.45,2.26-15.23,2-8.39,4.49-16.72,5.81-25.23,2.77-17.95-3.72-27.28-21.56-30.53-35.48-6.48-68,1-97.6,21.62-22.24,15.48-39.1,35.89-53.73,58.41-3.73,5.74-6.18,11.44-5.7,18.56.37,5.58-.38,11.29-1,16.89-3.92,33.13-15.25,63.89-30.16,93.49-1.39,2.77-2.66,5.6-4,8.41l1.57,1.27c5.3-4.37,11-8.36,15.84-13.16,19.41-19.18,38.52-38.65,57.83-57.92,8.24-8.23,16.65-16.28,25.09-24.3,1.49-1.41,3.52-2.26,5.3-3.36-10,19.87-24.73,35.62-39.64,51.14s-30.4,30.51-45.63,45.73l.6.76,50.93-21.57c.35.68.7,1.36,1.06,2-12.26,10.94-26.89,18.42-42.8,26.52,10.51,3.08,19.45,5.21,28,8.35C1857.77,942.81,1865.33,947.26,1864.78,958.63Z" style="fill: #0a203f"/>
    <path d="M1825.43,1044c1.59,2.45,3,5,4.75,7.3,10.31,14,23.78,24,39.37,31.47,32,15.24,65.19,14.57,98.63,7,19.1-4.36,37.85-10.29,56.74-15.56a12.3,12.3,0,0,0,2.76-1.78l-7.78-5.8c2.75-.82,4.2-1.54,5.7-1.65,9.61-.71,19.23-1.46,28.86-1.87,23-1,38.45-13.69,49.17-32.6,3.27-5.78,4.36-13.25,4.85-20.06.88-12.16-4.35-22.78-11.4-32.28-19.48-26.27-45.6-40-78.44-40.86-22.92-.63-45,3.82-66.76,10.36-25.78,7.74-51.2,16.9-77.31,23.22-15.62,3.78-28.06,9.75-37.87,22.74-7.14,9.46-16.36,17.34-25.62,26.92,7.53,5.15,14.46,10.21,21.71,14.77,23.35,14.67,49.63,18,76.41,19.86,23.56,1.59,47.08,3.85,70.6,6,3.63.33,7.17,1.55,10.76,2.36l-.3,2.16c-2.83.33-5.68,1-8.5.93-26-.71-51.92-1.21-77.84-2.53-11.59-.58-23.41-1.69-34.55-4.67C1854.72,1055.41,1840.64,1049.4,1825.43,1044Z" style="fill: #0a203f"/>
    <path d="M1642.85,1044.34c-23.72,21.53-49.22,38.72-79.19,48.48-3.93,1.28-4.92,4.14-4.62,7.77,1.38,16.87,5.48,32.2,22.89,39.92,3,1.35,5.9,3.08,9,4.4,26.24,11.35,52.52,22.61,78.74,34,3,1.29,6.93,1.31,9.24,6.2-6-.78-11-1.17-15.84-2.09-20.78-4-39.78-12.88-58.92-21.41-2.63-1.18-5.15-3.77-11-1.48,2.59,1.37,3.93,1.84,5,2.68,21.61,17.62,45.21,31.84,71.9,40.14,9.39,2.92,19.58,5.2,29.3,4.86,37.83-1.3,73.38-11.73,106.63-29.87a58.94,58.94,0,0,0,6-4.22c-7.31.37-14,2.09-20.76,3.51-24.1,5.06-48.22,10.15-73.09,8.87-4-.2-8-1-12-1.52a13.8,13.8,0,0,1,7.54-3.69c17.42-2.75,34.88-5.22,52.28-8.1,22.67-3.75,45-8.65,66.4-17.51a26,26,0,0,0,12.1-9.85c11.63-17.24,10.49-35.85,5.84-54.75-.49-2-2.4-4.07-4.2-5.27-17.07-11.36-29.17-27.05-39.38-44.46-2.14-3.64-4.6-7.09-6.5-10l-52.53,28.84c1.06,26.61,1.06,26.61-5.71,30-4.11-9.07-.79-19.72-5.15-28.94l-13,2.72c-.78,27-1.75,53.84-23.18,73.9,3.51-17.62,7.89-35,11.86-52.44,1.51-6.6,3.8-13.41.42-20.45a47.41,47.41,0,0,0-5.2-.32c-1.94.1-3.85.51-5.47.74-14.19,27.77-14.87,28.56-24.33,28.21,2.51-10.69,11.63-18.51,13.26-30C1673.57,1060.62,1657.73,1055,1642.85,1044.34Z" style="fill: #0a203f"/>
    <path d="M1515.55,1065l-.29-2.78c11.65-2.45,23.28-5.07,35-7.32,22.6-4.34,44.84-9.8,65.71-19.82,3.11-1.49,6.07-3.27,9.41-5.09l-17.54-21.25c-35.62,3.21-63.12-.41-71.82-9.85,6.23.34,11.85.77,17.48.94,13.31.42,26.62.8,39.93,1,2.38,0,4.77-.87,7.92-1.49-4.77-7.86-10.17-14.22-12.74-21.56-4.43-12.64-13.38-15.89-25.39-17.39-22.18-2.76-43.91-8.28-64.2-17.71-13.22-6.14-26.39-10-41-10.7a162.8,162.8,0,0,0-93.38,23.34,74.32,74.32,0,0,0-16.71,14.09c-11.65,12.93-13.64,27.79-6.08,43.52,9.75,20.27,25.1,34.16,47.22,39.82,21.65,5.55,43.47,9.87,66,8.65a90.43,90.43,0,0,1,12-.16c6.71.53,13.6.75,20.74,5.42-9.15,4-17.65,3.84-27.1,4.19,56.49,31.82,117.9,10.26,158-26.23C1584.73,1057.73,1551.36,1068,1515.55,1065Z" style="fill: #0a203f"/>
    <path d="M1163.73,851.85l20-22.27-.8-1.49-29.66,5.24c-5.24-8.9-10-17.06-14.87-25.22l-1.73.31c-1.43,9.94-2.85,19.89-4.25,29.59-5.62,1.14-10.18,2-14.7,3-4.68,1.06-9.32,2.29-14,3.44l0,1.77,26.71,12.49c-1,10.45-1.95,20.16-3.14,32.32l22.5-23.52,27.51,12,1-1.47C1173.42,869.38,1168.65,860.74,1163.73,851.85Z" style="fill: #0a203f"/>
    <path d="M2262.14,1236.87l1.06-1.92-19.79-21.09c3.19-10.14,10.49-17.43,12.8-28.49l-28.84,13.22L2205.91,1176c1.33,11.47,2.45,21.17,3.6,31.06l-29.05,14.71,31.71,6.3c1.59,10.15,3.09,19.71,4.59,29.27l1.71.22,14.72-25.57Z" style="fill: #0a203f"/>
    <path d="M1281.49,517.8c.31.57.62,1.13.94,1.69l29.5-3.08,14.43,29c2.6-12.26,4.64-21.9,6.67-31.51,5.82-.84,10.74-1.63,15.67-2.23,4.63-.56,9.45-.33,15-3.31L1337.1,493.2c1.81-10.23,3.55-20,5.28-29.76l-1.59-.66-22,20.12-26.29-14-1.38,1.37,12.18,27Z" style="fill: #0a203f"/>
    <path d="M2286.82,974.14l-21.13,25.1,31.51-6.86c7.27,7.92,9.93,17.89,18.13,25.46,1.08-11.18,2-20.94,2.91-30.11,9.89-4.31,20-4,30-9.29L2320,966.27c.55-10.13,1.09-20,1.63-29.87l-1.79-.46-19.39,22.24-28-11.28-1.15,1.47C2276.38,956.78,2281.43,965.19,2286.82,974.14Z" style="fill: #0a203f"/>
    <path d="M1313.48,1324.59,1340,1313.4c-.1-.62-.2-1.24-.29-1.87l-28.16-7.87c-.93-10.33-1.8-20-2.66-29.58l-1.88-.18-16,24.57-29.38-7.06-.81,1.58,18.91,23.24-15.81,25.38,1.21,1.52,28-10.71c6.44,7.71,12.72,15.21,20.32,24.29Z" style="fill: #0a203f"/>
    <path d="M1468.59,435.8c.21-.71.41-1.43.61-2.14L1447,414.4c3.76-9.85,7.21-18.87,10.65-27.9l-1.62-.94-25.18,15.27-23.1-18.78-1.46,1.26q3.32,14.37,6.62,28.72l-24.81,15.85.37,1.88,29.5,2.79c2.59,9.78,5.1,19.26,7.6,28.74l1.76.38q5.85-13.94,11.7-27.91Z" style="fill: #0a203f"/>
    <path d="M2003.44,414.47c-4.53,3.88-8.39,7-12,10.36-3.45,3.16-8,5.38-10.7,10.93,6.25-.34,11.22-.59,16.18-.89s9.76-.63,14.41-.94c4.19,9.86,8,18.81,12.7,29.88,3.28-12.15,5.93-21.94,8.48-31.34l29.3-2.68.33-1.91-24.68-16c2.38-10.35,4.58-19.9,7.31-31.73l-25.19,20.62-25.79-15.35-1.21,1.5C1996.05,395.82,1999.57,404.71,2003.44,414.47Z" style="fill: #0a203f"/>
    <path d="M2123.25,542.17l2.31.7q6.29-13.2,12.57-26.42l29.63,2.9c.22-.63.43-1.25.64-1.87l-21-19.91c2.86-10.27,9.16-18.18,11.56-29.44l-27.23,14.71-22.13-19.68-1.47,1.09q2.45,14.52,4.88,29.07L2087.43,508l.28,1.69,29.74,4.42C2119.52,524.07,2121.38,533.12,2123.25,542.17Z" style="fill: #0a203f"/>
    <path d="M1235.3,615.81,1255.47,640V608l29.58-12L1253.79,587c-.83-10.55-1.57-20-2.32-29.52l-1.79-.51-16.21,24.68-29.07-6.87-.81,1.57,18.24,23.2-15.26,24.65,1.44,1.71Z" style="fill: #0a203f"/>
    <path d="M2228.3,599.5c3.62-4.49,6.54-8.12,9.45-11.75s6-7.51,9-11.27l-1.24-1.68-28.1,6.67c-7.38-7.8-10.37-17.7-18.5-24.84-.88,11-1.66,20.79-2.44,30.52L2165.32,596l30,12.32c.59,10.47-2.56,20.2.14,31l19.13-23c10.42,1.57,18.75,8.38,30.18,9.22C2238.88,616.17,2233.75,608.08,2228.3,599.5Z" style="fill: #0a203f"/>
    <path d="M1864.4,337.06l-1.31,1.58,16.53,24.47-17.7,24.24,1.15,1.3,28.78-8.33L1909,404.24l2.43-.8V374.29l31.43-10.09-31-11.47v-32l-19.46,25.47Z" style="fill: #0a203f"/>
    <path d="M2300.64,754.15,2290.1,723l23.1-18.09-.66-1.59h-29.61L2271.43,673l-10,32h-29.64c-.18.68-.37,1.37-.56,2.05l24.8,17.26-8,28.86,1.72.92,23.63-18Z" style="fill: #0a203f"/>
    <path d="M1179.78,675.73h-2l-10.39,27.81h-32l24.81,19.56c-3.43,10.16-6.56,19.4-10.44,30.87l27.26-17.81,23,17.53,1.81-1.31c-2.44-9.45-4.89-18.9-7.28-28.14l24.71-17.49-.72-2.09h-29.9Z" style="fill: #0a203f"/>
    <path d="M2267.68,828.11c-.2.67-.41,1.34-.62,2l19.29,21.46c-4,10.09-10.87,17.46-13.88,28.22l28.29-12.33,20.13,21.3,1.77-.83c-.84-9.7-1.68-19.4-2.5-28.9,8.81-5.61,18.56-7.8,28-14.51l-30.55-6.81c-1.36-10.35-2.62-19.88-3.88-29.41l-1.91-.11-14.75,25.19Z" style="fill: #0a203f"/>
    <path d="M1187.36,1234.79l.63,1.92,29.61-4.51c5.14,9.29,9.6,17.36,14.06,25.44l1.86-.19c1.52-9.63,3-19.25,4.62-29.33l29.37-6.08c0-.58,0-1.16,0-1.74l-26.75-13.08c1.2-10.43,2.33-20.2,3.45-30l-1.51-.89-20.84,21.72-27.55-12.49-1,1.44c4.64,8.7,9.27,17.4,14,26.31Z" style="fill: #0a203f"/>
    <path d="M1179,948.37l-1.37-1.28L1149.79,958c-7-7.89-13.23-14.86-19.43-21.84l-1.8,1c.62,9.52,1.23,19,1.88,29-4.75,2.08-9.37,3.86-13.76,6.1s-10,2.41-13.35,7.66l28.82,7.4,2.82,29.53,1.76.44,15.85-25.07,29.54,6.45.69-1.6-19.3-23Z" style="fill: #0a203f"/>
    <path d="M2157.17,1332.54l27.92,10.41,1.11-1.45-15.56-25.27c6.17-7.68,12.12-15.09,18.08-22.49l-1.06-1.88-28.32,6.49-16.4-24.67-1.8.71c-.72,9.74-1.43,19.47-2.11,28.7-9.73,4.66-20,4.39-29.63,10l28.56,12c-.46,5.64-1,10.25-1.18,14.87-.19,4.82,0,9.66,0,16.81Z" style="fill: #0a203f"/>
    <path d="M1539.06,374.34v29.27l2.15.72c5.68-7.9,11.35-15.81,17.17-23.92l29,8.1c.24-.57.48-1.14.73-1.7l-17.27-23.45c4.62-9.43,12.37-16,16.31-26.77L1558,346.21l-17.62-22.64-1.74.68v28.41l-31.14,11.56Z" style="fill: #0a203f"/>
    <path d="M1187.93,1091.9c3.28-10.27,6.27-19.6,9.25-28.94l-1.47-.93-24.54,17.25-26.61-18.93c3.55,12,6.35,21.44,9.21,31.12l-23.8,17.7c.26.7.53,1.41.8,2.11h29.33l9.53,28.63,1.76-.05,9.79-27.71c10.08-2.42,20.1,1.68,30.69-2.38Z" style="fill: #0a203f"/>
    <path d="M2278.8,1139.76l1.89,0c3.24-9.55,6.49-19.11,9.88-29.11h29.35c.17-.51.34-1,.52-1.54l-23.94-17.55c2.83-9.67,5.55-19,8.27-28.3l-1.8-1.15-23.4,17.07c-9.44-5.34-16.4-12.44-26.72-17.07,3.49,10.9,6.49,20.26,9.5,29.69l-23.09,17.62.64,2.08h29Z" style="fill: #0a203f"/>
    <path d="M1724.27,268.74l-2.22-.26c-3.92,11.91-7.89,23.8-11.66,35.76a6.56,6.56,0,0,0,.4,4.76c3.91,6.7,8.11,13.24,12.81,20.8,4.1-6.45,7.76-11.26,10.31-16.59,1.46-3,2.26-7.26,1.38-10.39C1732.06,291.34,1728,280.08,1724.27,268.74Z" style="fill: #0a203f"/>
    <path d="M1714.31,334.67c-3.45-5.65-6.53-10.31-9.2-15.2-2.35-4.33-5.83-6-10.56-5.9-9.27.09-18.54-.05-27.81.07-1.72,0-3.43.77-6.76,1.58,8.22,6.08,15.6,10.61,21.84,16.36C1691.6,340.62,1701.88,339.58,1714.31,334.67Z" style="fill: #0a203f"/>
    <path d="M1785.69,315.8l-1.06-2.15c-10.93,0-21.86-.15-32.78.12-2.45.06-5.73.92-7.13,2.63-4.71,5.78-9.11,11.91-11.53,19.5,4.53,1,8.37,2.29,12.27,2.52,3.51.2,7.8.3,10.5-1.46C1766.14,330.33,1775.82,322.92,1785.69,315.8Z" style="fill: #0a203f"/>
    <path d="M1683.45,386.72l1.58,1.08a61.63,61.63,0,0,0,6.54-3.58c6-4.22,11.86-8.6,17.75-12.94,9.91-7.3,10.94-10.73,6.72-25.18-5.55,1-11.37,1.75-17,3.14a7,7,0,0,0-4.16,3.91C1690.85,364.27,1687.2,375.51,1683.45,386.72Z" style="fill: #0a203f"/>
    <path d="M1761.81,389.41l1.5-1c-3.79-11.44-7.46-22.93-11.5-34.29-.68-1.91-2.75-4.18-4.61-4.68-5.28-1.42-10.78-2-16.71-3-1.42,8.11-4.28,15.84,2.1,21.29C1741.79,375.59,1752,382.24,1761.81,389.41Z" style="fill: #0a203f"/>
    <path d="M1761.45,778.25c1.92,9.33,4,18.63,5.72,28,3.71,20.68.86,41.14-2.91,61.45a189.43,189.43,0,0,1-19.6,56.27c-3.59,6.6-7.56,13-11.53,19.38a5.17,5.17,0,0,1-3.24,2c-6.07,1.06-12.22,1.71-18.27,2.88-5.8,1.12-11.57,2.5-17.25,4.12-9.89,2.82-18.81-1.67-26.28-6-19.36-11.12-36.73-25.65-57.81-33.93a11.53,11.53,0,0,1-3.36-2.13c-21.91-19-38.74-41.34-43.64-70.68-3-18-.33-35.86,4.42-53.33q5.37-19.71,11.73-39.15c8.64-26.41,24.63-48.56,42.1-69.59,9.1-11,19.73-20.65,29.72-30.86a31.11,31.11,0,0,1,3.9-3.11c19.75-14.63,31-14.19,49.55,2.17A167.76,167.76,0,0,1,1718.25,659c12.29,13.67,26.37,25.17,40.82,36.51,40.25,31.59,58.45,72.94,52.44,124.33-4.6,39.41-19.92,74.91-39.27,109-2.13,3.76-4.74,6-9.18,6.64s-8.87,2.3-15.61,4.13c2.9-6,4.89-10.22,7-14.42,16.26-32.08,23.18-66.36,23.62-102.06.14-12.09-2.09-23.89-7.78-34.71-2.1-4-5-7.54-7.55-11.29Z" style="fill: #fff"/>
    <path d="M1629,709l-1.8-1.25c-21.24,19.37-33.23,44.26-41.82,71.14-1.09,3.44-2.4,8,2.38,9.35,5,1.42,5.29-3.66,6.68-6.86,5.93-13.67,11.57-27.49,17.94-41C1617.4,729.76,1623.39,719.5,1629,709Z" style="fill: #fff"/>
    <path d="M1446.2,870.56c2.59,2.26,5.12,4.59,7.78,6.76,21.69,17.63,47,28.89,72.11,40.29a283.55,283.55,0,0,0,32.46,12.78c8.27,2.58,13.62,6.37,13.51,16.15-1.74.12-3.66.61-5.46.33-27.76-4.36-55-11-79.44-25.23-30.23-17.55-54.7-41.28-69.31-73.67-6.09-13.52-8.45-28-5.7-42.9,4.6-25,17.93-36.73,43.58-38.32,22.61-1.41,44.44,2.54,65.81,9.4,10.37,3.32,20.52,7.34,31.72,11.39-13.21,46.62-1.18,86.2,30.27,120.06a13.73,13.73,0,0,1-.7,2.55c-5.11,8.94-3.13,12.91,6.88,13a54.87,54.87,0,0,1,28.39,8.27c8.52,5.19,16.51,11.23,24.93,16.58,7.84,5,15.74,10,24,14.23,9.44,4.87,19.69,5.66,30.18,3.94,18.39-3,36.55-6.68,54.29-12.73a202.54,202.54,0,0,1,33.93-8c20.53-3.24,40.42.49,59.75,7.62,1.46.54,2.68,1.76,4.39,2.91-1.29,2.28-2.12,4.5-3.58,6.19-17.58,20.48-35.33,40.79-56.92,57.29-17.37,13.27-36.06,23.85-57.81,28.09-39.4,7.69-73.5-1.6-100-32.67-9.88-11.61-18.25-24.56-26.75-37.26-10.91-16.3-21.19-33-32-49.43a12.42,12.42,0,0,0-6.09-4.61c-37-11.9-70.55-31.08-105-48.39-4.63-2.33-9.42-4.34-14.13-6.49C1447,869.33,1446.59,869.94,1446.2,870.56Z" style="fill: #fff"/>
    <path d="M1864.78,958.63c.55-11.37-7-15.82-15.35-18.88-8.58-3.14-17.52-5.27-28-8.35,15.91-8.1,30.54-15.58,42.8-26.52-.36-.68-.71-1.36-1.06-2l-50.93,21.57-.6-.76c15.23-15.22,30.71-30.2,45.63-45.73s29.65-31.27,39.64-51.14c-1.78,1.1-3.81,2-5.3,3.36-8.44,8-16.85,16.07-25.09,24.3-19.31,19.27-38.42,38.74-57.83,57.92-4.87,4.8-10.54,8.79-15.84,13.16l-1.57-1.27c1.33-2.81,2.6-5.64,4-8.41,14.91-29.6,26.24-60.36,30.16-93.49.67-5.6,1.42-11.31,1-16.89-.48-7.12,2-12.82,5.7-18.56,14.63-22.52,31.49-42.93,53.73-58.41,29.56-20.59,62.12-28.1,97.6-21.62,17.84,3.25,24.33,12.58,21.56,30.53-1.32,8.51-3.79,16.84-5.81,25.23-1.16,4.78-2.47,9.53-2.26,15.23l6.89-8.68c9.5,4.05,14.18,12.11,16.34,21.25a133.08,133.08,0,0,1,3.32,26.63c1,32.51-2.33,64.37-14.66,94.94-3.42,8.46-8.39,11.79-17.41,13-14.75,2-29.23,6-43.81,9.26a63.27,63.27,0,0,1-10,1.93c18.91-18.36,35.86-38,46.83-62.07,11.24-24.62,6.74-50.55,7.44-76l-2.85-.59c-1.46,3.86-3.45,7.6-4.28,11.58-2.89,14-5.15,28.11-8.11,42.08a90.19,90.19,0,0,1-5.9,19C1951.88,911.12,1910,946.23,1864.78,958.63Z" style="fill: #fff"/>
    <path d="M1897.49,883.71c-2.81-.9-4.43-1.91-5-1.51-5,3.89-10.88,7-14.54,14.88C1887.44,896,1891.3,889.85,1897.49,883.71Z" style="fill: #fff"/>
    <path d="M1825.43,1044c15.21,5.42,29.29,11.43,43.94,15.36,11.14,3,23,4.09,34.55,4.67,25.92,1.32,51.89,1.82,77.84,2.53,2.82.08,5.67-.6,8.5-.93l.3-2.16c-3.59-.81-7.13-2-10.76-2.36-23.52-2.13-47-4.39-70.6-6-26.78-1.81-53.06-5.19-76.41-19.86-7.25-4.56-14.18-9.62-21.71-14.77,9.26-9.58,18.48-17.46,25.62-26.92,9.81-13,22.25-19,37.87-22.74,26.11-6.32,51.53-15.48,77.31-23.22,21.75-6.54,43.84-11,66.76-10.36,32.84.9,59,14.59,78.44,40.86,7.05,9.5,12.28,20.12,11.4,32.28-.49,6.81-1.58,14.28-4.85,20.06-10.72,18.91-26.17,31.62-49.17,32.6-9.63.41-19.25,1.16-28.86,1.87-1.5.11-2.95.83-5.7,1.65l7.78,5.8a12.3,12.3,0,0,1-2.76,1.78c-18.89,5.27-37.64,11.2-56.74,15.56-33.44,7.62-66.66,8.29-98.63-7-15.59-7.43-29.06-17.48-39.37-31.47C1828.46,1049,1827,1046.43,1825.43,1044Z" style="fill: #fff"/>
    <path d="M1642.85,1044.34c14.88,10.62,30.72,16.28,48.19,18.93-1.63,11.47-10.75,19.29-13.26,30,9.46.35,10.14-.44,24.33-28.21,1.62-.23,3.53-.64,5.47-.74a47.41,47.41,0,0,1,5.2.32c3.38,7,1.09,13.85-.42,20.45-4,17.45-8.35,34.82-11.86,52.44,21.43-20.06,22.4-46.88,23.18-73.9l13-2.72c4.36,9.22,1,19.87,5.15,28.94,6.77-3.43,6.77-3.43,5.71-30l52.53-28.84c1.9,2.91,4.36,6.36,6.5,10,10.21,17.41,22.31,33.1,39.38,44.46,1.8,1.2,3.71,3.27,4.2,5.27,4.65,18.9,5.79,37.51-5.84,54.75a26,26,0,0,1-12.1,9.85c-21.36,8.86-43.73,13.76-66.4,17.51-17.4,2.88-34.86,5.35-52.28,8.1a13.8,13.8,0,0,0-7.54,3.69c4,.52,8,1.32,12,1.52,24.87,1.28,49-3.81,73.09-8.87,6.76-1.42,13.45-3.14,20.76-3.51a58.94,58.94,0,0,1-6,4.22c-33.25,18.14-68.8,28.57-106.63,29.87-9.72.34-19.91-1.94-29.3-4.86-26.69-8.3-50.29-22.52-71.9-40.14-1-.84-2.37-1.31-5-2.68,5.89-2.29,8.41.3,11,1.48,19.14,8.53,38.14,17.44,58.92,21.41,4.85.92,9.8,1.31,15.84,2.09-2.31-4.89-6.27-4.91-9.24-6.2-26.22-11.39-52.5-22.65-78.74-34-3.05-1.32-5.91-3.05-9-4.4-17.41-7.72-21.51-23-22.89-39.92-.3-3.63.69-6.49,4.62-7.77C1593.63,1083.06,1619.13,1065.87,1642.85,1044.34Z" style="fill: #fff"/>
    <path d="M1515.55,1065c35.81,3,69.18-7.29,103.1-20.38-40.11,36.49-101.52,58-158,26.23,9.45-.35,17.95-.18,27.1-4.19-7.14-4.67-14-4.89-20.74-5.42a90.43,90.43,0,0,0-12,.16c-22.55,1.22-44.37-3.1-66-8.65-22.12-5.66-37.47-19.55-47.22-39.82-7.56-15.73-5.57-30.59,6.08-43.52a74.32,74.32,0,0,1,16.71-14.09A162.8,162.8,0,0,1,1458,932c14.65.71,27.82,4.56,41,10.7,20.29,9.43,42,14.95,64.2,17.71,12,1.5,21,4.75,25.39,17.39,2.57,7.34,8,13.7,12.74,21.56-3.15.62-5.54,1.52-7.92,1.49-13.31-.2-26.62-.58-39.93-1-5.63-.17-11.25-.6-17.48-.94,8.7,9.44,36.2,13.06,71.82,9.85l17.54,21.25c-3.34,1.82-6.3,3.6-9.41,5.09-20.87,10-43.11,15.48-65.71,19.82-11.69,2.25-23.32,4.87-35,7.32Z" style="fill: #fff"/>
    <path d="M1163.73,851.85c4.92,8.89,9.69,17.53,14.46,26.16l-1,1.47-27.51-12L1127.22,891c1.19-12.16,2.13-21.87,3.14-32.32l-26.71-12.49,0-1.77c4.66-1.15,9.3-2.38,14-3.44,4.52-1,9.08-1.87,14.7-3,1.4-9.7,2.82-19.65,4.25-29.59l1.73-.31c4.82,8.16,9.63,16.32,14.87,25.22l29.66-5.24.8,1.49Z" style="fill: #fff"/>
    <path d="M2262.14,1236.87l-28.95-4.91-14.72,25.57-1.71-.22c-1.5-9.56-3-19.12-4.59-29.27l-31.71-6.3,29.05-14.71c-1.15-9.89-2.27-19.59-3.6-31.06l21.46,22.62,28.84-13.22c-2.31,11.06-9.61,18.35-12.8,28.49L2263.2,1235Z" style="fill: #fff"/>
    <path d="M1281.49,517.8l21.82-20.51-12.18-27,1.38-1.37,26.29,14,22-20.12,1.59.66c-1.73,9.76-3.47,19.53-5.28,29.76l26.56,15.16c-5.51,3-10.33,2.75-15,3.31-4.93.6-9.85,1.39-15.67,2.23-2,9.61-4.07,19.25-6.67,31.51l-14.43-29-29.5,3.08C1282.11,518.93,1281.8,518.37,1281.49,517.8Z" style="fill: #fff"/>
    <path d="M2286.82,974.14c-5.39-8.95-10.44-17.36-15.5-25.77l1.15-1.47,28,11.28,19.39-22.24,1.79.46c-.54,9.87-1.08,19.74-1.63,29.87l28.2,12.17c-10,5.28-20.11,5-30,9.29-.89,9.17-1.83,18.93-2.91,30.11-8.2-7.57-10.86-17.54-18.13-25.46l-31.51,6.86Z" style="fill: #fff"/>
    <path d="M1313.48,1324.59v32.12c-7.6-9.08-13.88-16.58-20.32-24.29l-28,10.71-1.21-1.52,15.81-25.38L1260.84,1293l.81-1.58,29.38,7.06,16-24.57,1.88.18c.86,9.62,1.73,19.25,2.66,29.58l28.16,7.87c.09.63.19,1.25.29,1.87Z" style="fill: #fff"/>
    <path d="M1468.59,435.8l-29.54-2q-5.86,14-11.7,27.91l-1.76-.38c-2.5-9.48-5-19-7.6-28.74l-29.5-2.79-.37-1.88L1412.93,412q-3.3-14.34-6.62-28.72l1.46-1.26,23.1,18.78,25.18-15.27,1.62.94c-3.44,9-6.89,18.05-10.65,27.9l22.18,19.26C1469,434.37,1468.8,435.09,1468.59,435.8Z" style="fill: #fff"/>
    <path d="M2003.44,414.47c-3.87-9.76-7.39-18.65-10.9-27.53l1.21-1.5,25.79,15.35,25.19-20.62c-2.73,11.83-4.93,21.38-7.31,31.73l24.68,16-.33,1.91-29.3,2.68c-2.55,9.4-5.2,19.19-8.48,31.34-4.71-11.07-8.51-20-12.7-29.88-4.65.31-9.53.64-14.41.94s-9.93.55-16.18.89c2.7-5.55,7.25-7.77,10.7-10.93C1995.05,421.48,1998.91,418.35,2003.44,414.47Z" style="fill: #fff"/>
    <path d="M2123.25,542.17c-1.87-9-3.73-18.1-5.8-28.11l-29.74-4.42-.28-1.69,25.6-14.63q-2.45-14.56-4.88-29.07l1.47-1.09,22.13,19.68L2159,468.13c-2.4,11.26-8.7,19.17-11.56,29.44l21,19.91c-.21.62-.42,1.24-.64,1.87l-29.63-2.9q-6.28,13.23-12.57,26.42Z" style="fill: #fff"/>
    <path d="M1235.3,615.81,1208,625.93l-1.44-1.71,15.26-24.65-18.24-23.2.81-1.57,29.07,6.87L1249.68,557l1.79.51c.75,9.49,1.49,19,2.32,29.52l31.26,8.93-29.58,12V640Z" style="fill: #fff"/>
    <path d="M2228.3,599.5c5.45,8.58,10.58,16.67,16.5,26-11.43-.84-19.76-7.65-30.18-9.22l-19.13,23c-2.7-10.84.45-20.57-.14-31l-30-12.32,31.17-8.81c.78-9.73,1.56-19.55,2.44-30.52,8.13,7.14,11.12,17,18.5,24.84l28.1-6.67,1.24,1.68q-4.51,5.64-9,11.27C2234.84,591.38,2231.92,595,2228.3,599.5Z" style="fill: #fff"/>
    <path d="M1864.4,337.06l28.07,9.14,19.46-25.47v32l31,11.47-31.43,10.09v29.15l-2.43.8-17.19-23.92-28.78,8.33-1.15-1.3,17.7-24.24-16.53-24.47Z" style="fill: #fff"/>
    <path d="M2300.64,754.15l-27.23-18.06-23.63,18-1.72-.92,8-28.86-24.8-17.26c.19-.68.38-1.37.56-2.05h29.64l10-32,11.5,30.33h29.61l.66,1.59L2290.1,723Z" style="fill: #fff"/>
    <path d="M1179.78,675.73l8.88,28.94h29.9l.72,2.09-24.71,17.49c2.39,9.24,4.84,18.69,7.28,28.14L1200,753.7l-23-17.53L1149.79,754c3.88-11.47,7-20.71,10.44-30.87l-24.81-19.56h32l10.39-27.81Z" style="fill: #fff"/>
    <path d="M2267.68,828.11l29.4,5.29,14.75-25.19,1.91.11c1.26,9.53,2.52,19.06,3.88,29.41l30.55,6.81c-9.45,6.71-19.2,8.9-28,14.51.82,9.5,1.66,19.2,2.5,28.9l-1.77.83-20.13-21.3-28.29,12.33c3-10.76,9.86-18.13,13.88-28.22l-19.29-21.46C2267.27,829.45,2267.48,828.78,2267.68,828.11Z" style="fill: #fff"/>
    <path d="M1187.36,1234.79l20-21.44c-4.76-8.91-9.39-17.61-14-26.31l1-1.44,27.55,12.49,20.84-21.72,1.51.89c-1.12,9.76-2.25,19.53-3.45,30l26.75,13.08c0,.58,0,1.16,0,1.74l-29.37,6.08c-1.59,10.08-3.1,19.7-4.62,29.33l-1.86.19c-4.46-8.08-8.92-16.15-14.06-25.44l-29.61,4.51Z" style="fill: #fff"/>
    <path d="M1179,948.37l-15.5,25.75,19.3,23-.69,1.6-29.54-6.45-15.85,25.07-1.76-.44-2.82-29.53-28.82-7.4c3.3-5.25,9-5.43,13.35-7.66s9-4,13.76-6.1c-.65-9.94-1.26-19.46-1.88-29l1.8-1c6.2,7,12.41,14,19.43,21.84l27.85-10.89Z" style="fill: #fff"/>
    <path d="M2157.17,1332.54l-20.43,24.2c0-7.15-.15-12,0-16.81.18-4.62.72-9.23,1.18-14.87l-28.56-12c9.63-5.61,19.9-5.34,29.63-10,.68-9.23,1.39-19,2.11-28.7l1.8-.71,16.4,24.67,28.32-6.49,1.06,1.88c-6,7.4-11.91,14.81-18.08,22.49l15.56,25.27-1.11,1.45Z" style="fill: #fff"/>
    <path d="M1539.06,374.34l-31.57-10.12,31.14-11.56V324.25l1.74-.68L1558,346.21l29.15-9.62c-3.94,10.8-11.69,17.34-16.31,26.77l17.27,23.45c-.25.56-.49,1.13-.73,1.7l-29-8.1c-5.82,8.11-11.49,16-17.17,23.92l-2.15-.72Z" style="fill: #fff"/>
    <path d="M1187.93,1091.9l23.94,17.87c-10.59,4.06-20.61,0-30.69,2.38l-9.79,27.71-1.76.05-9.53-28.63h-29.33c-.27-.7-.54-1.41-.8-2.11l23.8-17.7c-2.86-9.68-5.66-19.12-9.21-31.12l26.61,18.93,24.54-17.25,1.47.93C1194.2,1072.3,1191.21,1081.63,1187.93,1091.9Z" style="fill: #fff"/>
    <path d="M2278.8,1139.76l-9.9-28.28h-29l-.64-2.08,23.09-17.62c-3-9.43-6-18.79-9.5-29.69,10.32,4.63,17.28,11.73,26.72,17.07l23.4-17.07,1.8,1.15c-2.72,9.31-5.44,18.63-8.27,28.3l23.94,17.55c-.18.51-.35,1-.52,1.54h-29.35c-3.39,10-6.64,19.56-9.88,29.11Z" style="fill: #fff"/>
    <path d="M1724.27,268.74c3.74,11.34,7.79,22.6,11,34.08.88,3.13.08,7.35-1.38,10.39-2.55,5.33-6.21,10.14-10.31,16.59-4.7-7.56-8.9-14.1-12.81-20.8a6.56,6.56,0,0,1-.4-4.76c3.77-12,7.74-23.85,11.66-35.76Z" style="fill: #eba923"/>
    <path d="M1714.31,334.67c-12.43,4.91-22.71,5.95-32.49-3.09-6.24-5.75-13.62-10.28-21.84-16.36,3.33-.81,5-1.56,6.76-1.58,9.27-.12,18.54,0,27.81-.07,4.73-.05,8.21,1.57,10.56,5.9C1707.78,324.36,1710.86,329,1714.31,334.67Z" style="fill: #eba923"/>
    <path d="M1785.69,315.8c-9.87,7.12-19.55,14.53-29.73,21.16-2.7,1.76-7,1.66-10.5,1.46-3.9-.23-7.74-1.54-12.27-2.52,2.42-7.59,6.82-13.72,11.53-19.5,1.4-1.71,4.68-2.57,7.13-2.63,10.92-.27,21.85-.12,32.78-.12Z" style="fill: #eba923"/>
    <path d="M1683.45,386.72c3.75-11.21,7.4-22.45,11.38-33.57a7,7,0,0,1,4.16-3.91c5.68-1.39,11.5-2.17,17-3.14,4.22,14.45,3.19,17.88-6.72,25.18-5.89,4.34-11.76,8.72-17.75,12.94a61.63,61.63,0,0,1-6.54,3.58Z" style="fill: #eba923"/>
    <path d="M1761.81,389.41c-9.79-7.17-20-13.82-29.22-21.68-6.38-5.45-3.52-13.18-2.1-21.29,5.93,1,11.43,1.59,16.71,3,1.86.5,3.93,2.77,4.61,4.68,4,11.36,7.71,22.85,11.5,34.29Z" style="fill: #eba923"/>
    <path d="M1629,709c-5.57,10.46-11.56,20.72-16.62,31.42-6.37,13.47-12,27.29-17.94,41-1.39,3.2-1.65,8.28-6.68,6.86-4.78-1.35-3.47-5.91-2.38-9.35,8.59-26.88,20.58-51.77,41.82-71.14Z"/>
    <path d="M1897.49,883.71c-6.19,6.14-10,12.24-19.49,13.37,3.66-7.88,9.54-11,14.54-14.88C1893.06,881.8,1894.68,882.81,1897.49,883.71Z"/>
  </g>
  <rect width="534" height="1764" style="fill: #c32034"/>
  <rect x="534" width="45.88" height="1764" style="fill: #eba923"/>
  <rect x="2922" width="534" height="1764" transform="translate(6378 1764) rotate(180)" style="fill: #c32034"/>
  <rect x="2876.12" width="45.88" height="1764" transform="translate(5798.12 1764) rotate(180)" style="fill: #eba923"/>
  <text transform="matrix(0.79, 0.62, -0.62, 0.79, 1355.84, 1380.99)" style="font-size: 74px;fill: #fff;font-family: AmericanaStd, Americana Std">I</text>
  <text transform="matrix(0.83, 0.56, -0.56, 0.83, 1376.29, 1397.51)" style="font-size: 74px;fill: #fff;font-family: AmericanaStd, Americana Std">N</text>
  <text transform="translate(1428.27 1431.19) rotate(29.28)" style="font-size: 74px;fill: #fff;font-family: AmericanaStd, Americana Std"> </text>
  <text transform="matrix(0.91, 0.42, -0.42, 0.91, 1454.13, 1446.26)" style="font-size: 74px;fill: #fff;font-family: AmericanaStd, Americana Std">G</text>
  <text transform="translate(1515.52 1473.99) rotate(18)" style="font-size: 74px;fill: #fff;font-family: AmericanaStd, Americana Std">O</text>
  <text transform="translate(1580.9 1494.73) rotate(11.45)" style="font-size: 74px;fill: #fff;font-family: AmericanaStd, Americana Std">D</text>
  <text transform="translate(1644.55 1506.67) rotate(6.87)" style="font-size: 74px;fill: #fff;font-family: AmericanaStd, Americana Std"> </text>
  <text transform="translate(1674.54 1511.14) rotate(1.56)" style="font-size: 74px;fill: #fff;font-family: AmericanaStd, Americana Std">W</text>
  <text transform="translate(1755.55 1512.32) rotate(-5.11)" style="font-size: 74px;fill: #fff;font-family: AmericanaStd, Americana Std">E</text>
  <text transform="translate(1813.03 1506.44) rotate(-9.34)" style="font-size: 74px;fill: #fff;font-family: AmericanaStd, Americana Std"> </text>
  <text transform="translate(1842.37 1501.93) rotate(-13.59)" style="font-size: 74px;fill: #fff;font-family: AmericanaStd, Americana Std">T</text>
  <text transform="translate(1899.4 1487.9) rotate(-19.51)" style="font-size: 74px;fill: #fff;font-family: AmericanaStd, Americana Std">R</text>
  <text transform="matrix(0.9, -0.43, 0.43, 0.9, 1958.62, 1466.57)" style="font-size: 74px;fill: #fff;font-family: AmericanaStd, Americana Std">U</text>
  <text transform="translate(2016.16 1438.27) rotate(-31.52)" style="font-size: 74px;fill: #fff;font-family: AmericanaStd, Americana Std">S</text>
  <text transform="matrix(0.8, -0.6, 0.6, 0.8, 2063.56, 1408.91)" style="font-size: 74px;fill: #fff;font-family: AmericanaStd, Americana Std">T</text>
  <path d="M1714.42,901.15a9.2,9.2,0,0,1,3.61-4.6,5.37,5.37,0,0,1,2-.58,4.73,4.73,0,0,1,2.81.5c3.27,1.36,4.42,4.81,4.18,8.77a11.48,11.48,0,0,1-.59,3.13c-1.08,2.49-2.9,3.3-5.62,3.38a3.91,3.91,0,0,1-2.37-.52,4.39,4.39,0,0,1-1.73-2.86c-.32-1.39.19-3.09.19-4.36C1715.82,904,1713.88,903.15,1714.42,901.15Z" style="fill: #eba923"/>
  <path d="M1701.71,889.71a9.1,9.1,0,0,1,3.61-4.6,5.32,5.32,0,0,1,2-.58,4.76,4.76,0,0,1,2.82.5c3.27,1.36,4.42,4.81,4.18,8.76a11.48,11.48,0,0,1-.59,3.14c-1.09,2.49-2.9,3.3-5.62,3.38a3.88,3.88,0,0,1-2.37-.52,4.36,4.36,0,0,1-1.73-2.86c-.32-1.39.18-3.09.18-4.36C1703.11,892.52,1701.16,891.71,1701.71,889.71Z" style="fill: #eba923"/>
  <path d="M1690.94,878.9a4.73,4.73,0,0,1,2.81-.5,5.37,5.37,0,0,1,2,.58,9.2,9.2,0,0,1,3.61,4.6c.55,2-1.4,2.81-2.44,2.86,0,1.27.5,3,.18,4.36a4.4,4.4,0,0,1-1.73,2.86,3.88,3.88,0,0,1-2.37.52c-2.72-.08-4.53-.89-5.62-3.38a11.48,11.48,0,0,1-.59-3.14C1686.52,883.71,1687.67,880.26,1690.94,878.9Z" style="fill: #eba923"/>
  <path d="M1676.09,884.94a4.76,4.76,0,0,1,2.82-.5,5.32,5.32,0,0,1,2,.58,9.17,9.17,0,0,1,3.62,4.6c.54,2-1.41,2.81-2.45,2.86,0,1.27.5,3,.18,4.35a4.38,4.38,0,0,1-1.72,2.87,4,4,0,0,1-2.38.52c-2.72-.08-4.53-.89-5.62-3.39a11.72,11.72,0,0,1-.59-3.13C1671.67,889.75,1672.82,886.3,1676.09,884.94Z" style="fill: #eba923"/>
  <path d="M1662.51,896.7a4.77,4.77,0,0,1,2.82-.5,5.37,5.37,0,0,1,2,.58,9.21,9.21,0,0,1,3.61,4.6c.54,2-1.4,2.81-2.45,2.86,0,1.27.5,3,.18,4.36a4.38,4.38,0,0,1-1.72,2.86,4,4,0,0,1-2.37.52c-2.72-.08-4.54-.89-5.62-3.38a11.48,11.48,0,0,1-.59-3.14C1658.1,901.51,1659.24,898.06,1662.51,896.7Z" style="fill: #eba923"/>
  <path d="M1656.66,917.4c0,1.28.5,3,.18,4.36a4.35,4.35,0,0,1-1.73,2.86,3.89,3.89,0,0,1-2.37.53c-2.72-.08-4.53-.89-5.62-3.39a11.34,11.34,0,0,1-.59-3.13c-.24-4,.91-7.4,4.18-8.76a4.73,4.73,0,0,1,2.81-.5,5.19,5.19,0,0,1,2,.58,9.15,9.15,0,0,1,3.61,4.6C1659.65,916.55,1657.7,917.36,1656.66,917.4Z" style="fill: #eba923"/>
  <path d="M1669.55,923.22c0,1.27.5,3,.18,4.36a4.38,4.38,0,0,1-1.72,2.86,4,4,0,0,1-2.37.52c-2.72-.08-4.54-.89-5.62-3.38a11.11,11.11,0,0,1-.59-3.14c-.24-4,.9-7.4,4.17-8.76a4.77,4.77,0,0,1,2.82-.5,5.37,5.37,0,0,1,2,.58,9.21,9.21,0,0,1,3.61,4.6C1672.54,922.36,1670.6,923.17,1669.55,923.22Z" style="fill: #eba923"/>
  <path d="M1682.27,931.75c0,1.27.5,3,.18,4.36a4.35,4.35,0,0,1-1.73,2.86,4,4,0,0,1-2.37.53c-2.72-.09-4.54-.89-5.62-3.39a11.41,11.41,0,0,1-.59-3.13c-.24-4,.91-7.4,4.18-8.76a4.73,4.73,0,0,1,2.81-.5,5.36,5.36,0,0,1,2,.57,9.24,9.24,0,0,1,3.61,4.6C1685.25,930.89,1683.31,931.71,1682.27,931.75Z" style="fill: #eba923"/>
  <path d="M1682.9,912.59c0,1.27.5,3,.18,4.36a4.34,4.34,0,0,1-1.72,2.86,3.91,3.91,0,0,1-2.37.52c-2.72-.08-4.54-.88-5.62-3.38a11.11,11.11,0,0,1-.59-3.13c-.24-4,.9-7.4,4.17-8.77a4.85,4.85,0,0,1,2.82-.5,5.37,5.37,0,0,1,2,.58,9.29,9.29,0,0,1,3.61,4.6C1685.89,911.73,1684,912.55,1682.9,912.59Z" style="fill: #eba923"/>
  <path d="M1690.94,917.68a4.73,4.73,0,0,1,2.81-.5,5.19,5.19,0,0,1,2,.58,9.17,9.17,0,0,1,3.61,4.59c.55,2-1.4,2.82-2.44,2.86,0,1.28.5,3,.18,4.36a4.35,4.35,0,0,1-1.73,2.86,3.89,3.89,0,0,1-2.37.53c-2.72-.08-4.53-.89-5.62-3.39a11.34,11.34,0,0,1-.59-3.13C1686.52,922.49,1687.67,919,1690.94,917.68Z" style="fill: #eba923"/>
  <path d="M1697.07,944.28c0,1.28.5,3,.18,4.36a4.31,4.31,0,0,1-1.73,2.86,3.89,3.89,0,0,1-2.37.53c-2.72-.08-4.53-.89-5.62-3.39a11.34,11.34,0,0,1-.59-3.13c-.24-4,.91-7.4,4.18-8.76a4.76,4.76,0,0,1,2.82-.5,5.32,5.32,0,0,1,2,.58,9.17,9.17,0,0,1,3.62,4.6C1700.06,943.43,1698.11,944.24,1697.07,944.28Z" style="fill: #eba923"/>
  <path d="M1697.16,905.78c0,1.27.5,3,.18,4.36a4.34,4.34,0,0,1-1.72,2.86,3.93,3.93,0,0,1-2.38.52c-2.72-.08-4.53-.88-5.62-3.38A11.87,11.87,0,0,1,1687,907c-.24-4,.91-7.41,4.18-8.77a4.76,4.76,0,0,1,2.82-.5,5.32,5.32,0,0,1,2,.58,9.22,9.22,0,0,1,3.62,4.6C1700.15,904.92,1698.2,905.73,1697.16,905.78Z" style="fill: #eba923"/>
  <path d="M1713.37,933.21a11.48,11.48,0,0,1-.59,3.13c-1.09,2.5-2.9,3.3-5.62,3.38a3.88,3.88,0,0,1-2.37-.52,4.35,4.35,0,0,1-1.73-2.86c-.32-1.39.18-3.09.18-4.36-1-.05-3-.86-2.44-2.86a9.2,9.2,0,0,1,3.61-4.6,5.37,5.37,0,0,1,2-.58,4.73,4.73,0,0,1,2.81.5C1712.46,925.8,1713.61,929.25,1713.37,933.21Z" style="fill: #eba923"/>
  <path d="M1713.73,913.32a11.48,11.48,0,0,1-.59,3.13c-1.08,2.5-2.9,3.3-5.62,3.39a4,4,0,0,1-2.37-.53,4.34,4.34,0,0,1-1.72-2.86c-.32-1.39.18-3.09.18-4.36-1,0-3-.86-2.45-2.86a9.24,9.24,0,0,1,3.61-4.6,5.37,5.37,0,0,1,2-.58,4.85,4.85,0,0,1,2.82.5C1712.82,905.92,1714,909.36,1713.73,913.32Z" style="fill: #eba923"/>
  <path d="M1726.54,925.21a11.86,11.86,0,0,1-.59,3.14c-1.09,2.49-2.9,3.3-5.62,3.38a3.88,3.88,0,0,1-2.37-.52,4.31,4.31,0,0,1-1.73-2.86c-.32-1.39.18-3.09.18-4.36-1,0-3-.86-2.45-2.86a9.22,9.22,0,0,1,3.62-4.6,5.32,5.32,0,0,1,2-.58,4.76,4.76,0,0,1,2.82.5C1725.63,917.81,1726.78,921.26,1726.54,925.21Z" style="fill: #eba923"/>
  <path d="M1739.52,918.49a11.48,11.48,0,0,1-.59,3.14c-1.08,2.49-2.9,3.3-5.62,3.38a3.91,3.91,0,0,1-2.37-.52,4.36,4.36,0,0,1-1.72-2.86c-.32-1.39.18-3.09.18-4.36-1.05,0-3-.86-2.45-2.86a9.25,9.25,0,0,1,3.61-4.6,5.37,5.37,0,0,1,2-.58,4.77,4.77,0,0,1,2.82.5C1738.62,911.09,1739.76,914.54,1739.52,918.49Z" style="fill: #eba923"/>
  <path d="M1682.18,950.28c1,0,3-.86,2.44-2.86a9.2,9.2,0,0,0-3.61-4.6,5.37,5.37,0,0,0-2-.58,4.73,4.73,0,0,0-2.81.5c-2.44,1-3.69,3.18-4.08,5.86-1.24-.65-2.46-1.32-3.64-2,5.3,3,11.3,6.07,17.85,6.54a27.4,27.4,0,0,1-4-.59A22.47,22.47,0,0,1,1682.18,950.28Z" style="fill: #eba923"/>
  <path d="M1668.46,941.74c1,0,3-.86,2.45-2.86a9.29,9.29,0,0,0-3.61-4.6,5.57,5.57,0,0,0-2-.58,4.85,4.85,0,0,0-2.82.5c-2.55,1.07-3.79,3.41-4.11,6.26,3.19,2,6.41,4,9.69,5.9l.42.24a4.6,4.6,0,0,0,.13-.5C1669,944.71,1668.46,943,1668.46,941.74Z" style="fill: #eba923"/>
  <path d="M1709.56,942.7a4.77,4.77,0,0,0-2.82-.5,5.19,5.19,0,0,0-2,.58,9.17,9.17,0,0,0-3.61,4.59,2.17,2.17,0,0,0,1.72,2.73l-.09,0c2.93-.71,5.88-1.35,8.83-1.92.63-.12,1.26-.21,1.88-.32h0A6.74,6.74,0,0,0,1709.56,942.7Z" style="fill: #eba923"/>
  <path d="M1737.8,929a4.76,4.76,0,0,0-2.82-.5,5.43,5.43,0,0,0-2,.58,9.25,9.25,0,0,0-3.61,4.6c-.54,2,1.41,2.81,2.45,2.86,0,1.27-.5,3-.18,4.36a4.87,4.87,0,0,0,1.37,2.61,4.55,4.55,0,0,1-1.39,1.19,4.17,4.17,0,0,0,1.48-1.32c3.16-5.08,6.31-10.17,9.28-15.36-.62,1.07-1.24,2.14-1.87,3.21A6.2,6.2,0,0,0,1737.8,929Z" style="fill: #eba923"/>
  <path d="M1657,933.07a9.14,9.14,0,0,0-3.61-4.6,5.32,5.32,0,0,0-2-.58,4.76,4.76,0,0,0-2.82.5,6.32,6.32,0,0,0-3.42,3.45h0c3.2,2.11,6.39,4.22,9.6,6.3a21,21,0,0,1-.22-2.2C1655.61,935.88,1657.56,935.07,1657,933.07Z" style="fill: #eba923"/>
  <path d="M1726.9,944.38c.24-4-.91-7.41-4.18-8.77a4.73,4.73,0,0,0-2.81-.5,5.37,5.37,0,0,0-2,.58,9.2,9.2,0,0,0-3.61,4.6c-.54,2,1.4,2.81,2.44,2.86,0,1.23-.46,2.85-.2,4.21,4.44-.7,8.9-1.25,13.32-2-1.05.19-2.1.35-3.16.51A13.72,13.72,0,0,0,1726.9,944.38Z" style="fill: #eba923"/>
</svg>
